%TF.GenerationSoftware,KiCad,Pcbnew,8.0.6*%
%TF.CreationDate,2024-12-06T22:05:36+05:00*%
%TF.ProjectId,mt-32DIT-module,6d742d33-3244-4495-942d-6d6f64756c65,rev?*%
%TF.SameCoordinates,Original*%
%TF.FileFunction,Soldermask,Top*%
%TF.FilePolarity,Negative*%
%FSLAX46Y46*%
G04 Gerber Fmt 4.6, Leading zero omitted, Abs format (unit mm)*
G04 Created by KiCad (PCBNEW 8.0.6) date 2024-12-06 22:05:36*
%MOMM*%
%LPD*%
G01*
G04 APERTURE LIST*
G04 Aperture macros list*
%AMRoundRect*
0 Rectangle with rounded corners*
0 $1 Rounding radius*
0 $2 $3 $4 $5 $6 $7 $8 $9 X,Y pos of 4 corners*
0 Add a 4 corners polygon primitive as box body*
4,1,4,$2,$3,$4,$5,$6,$7,$8,$9,$2,$3,0*
0 Add four circle primitives for the rounded corners*
1,1,$1+$1,$2,$3*
1,1,$1+$1,$4,$5*
1,1,$1+$1,$6,$7*
1,1,$1+$1,$8,$9*
0 Add four rect primitives between the rounded corners*
20,1,$1+$1,$2,$3,$4,$5,0*
20,1,$1+$1,$4,$5,$6,$7,0*
20,1,$1+$1,$6,$7,$8,$9,0*
20,1,$1+$1,$8,$9,$2,$3,0*%
G04 Aperture macros list end*
%ADD10RoundRect,0.150000X0.150000X-0.725000X0.150000X0.725000X-0.150000X0.725000X-0.150000X-0.725000X0*%
%ADD11RoundRect,0.155000X-0.155000X0.212500X-0.155000X-0.212500X0.155000X-0.212500X0.155000X0.212500X0*%
%ADD12RoundRect,0.155000X0.212500X0.155000X-0.212500X0.155000X-0.212500X-0.155000X0.212500X-0.155000X0*%
%ADD13RoundRect,0.250000X1.025000X-0.875000X1.025000X0.875000X-1.025000X0.875000X-1.025000X-0.875000X0*%
%ADD14RoundRect,0.155000X0.155000X-0.212500X0.155000X0.212500X-0.155000X0.212500X-0.155000X-0.212500X0*%
%ADD15RoundRect,0.160000X0.160000X-0.197500X0.160000X0.197500X-0.160000X0.197500X-0.160000X-0.197500X0*%
%ADD16R,1.700000X1.700000*%
%ADD17O,1.700000X1.700000*%
%ADD18R,1.600000X1.600000*%
%ADD19O,1.600000X1.600000*%
%ADD20R,1.600000X2.400000*%
%ADD21O,1.600000X2.400000*%
%ADD22RoundRect,0.155000X-0.212500X-0.155000X0.212500X-0.155000X0.212500X0.155000X-0.212500X0.155000X0*%
%ADD23C,1.000000*%
%ADD24R,2.000000X1.500000*%
%ADD25R,2.000000X3.800000*%
%ADD26C,1.600000*%
%ADD27C,1.620000*%
G04 APERTURE END LIST*
D10*
%TO.C,U2*%
X168735000Y-115115000D03*
X170005000Y-115115000D03*
X171275000Y-115115000D03*
X172545000Y-115115000D03*
X173815000Y-115115000D03*
X175085000Y-115115000D03*
X176355000Y-115115000D03*
X177625000Y-115115000D03*
X177625000Y-109965000D03*
X176355000Y-109965000D03*
X175085000Y-109965000D03*
X173815000Y-109965000D03*
X172545000Y-109965000D03*
X171275000Y-109965000D03*
X170005000Y-109965000D03*
X168735000Y-109965000D03*
%TD*%
D11*
%TO.C,C2*%
X200400000Y-85032500D03*
X200400000Y-86167500D03*
%TD*%
D12*
%TO.C,C4*%
X180627500Y-115110000D03*
X179492500Y-115110000D03*
%TD*%
D13*
%TO.C,C9*%
X203400000Y-89140000D03*
X203400000Y-82740000D03*
%TD*%
D14*
%TO.C,C6*%
X207150000Y-83867500D03*
X207150000Y-82732500D03*
%TD*%
D15*
%TO.C,R16*%
X150250000Y-81372500D03*
X150250000Y-80177500D03*
%TD*%
D16*
%TO.C,J1*%
X197790000Y-77560000D03*
D17*
X195250000Y-77560000D03*
X192710000Y-77560000D03*
X190170000Y-77560000D03*
%TD*%
D18*
%TO.C,SW1*%
X216200000Y-77560000D03*
D19*
X208580000Y-77560000D03*
%TD*%
D15*
%TO.C,R17*%
X147740000Y-81369500D03*
X147740000Y-80174500D03*
%TD*%
D20*
%TO.C,U6*%
X153250000Y-96000000D03*
D21*
X155790000Y-96000000D03*
X158330000Y-96000000D03*
X160870000Y-96000000D03*
X163410000Y-96000000D03*
X165950000Y-96000000D03*
X168490000Y-96000000D03*
X171030000Y-96000000D03*
X173570000Y-96000000D03*
X176110000Y-96000000D03*
X178650000Y-96000000D03*
X181190000Y-96000000D03*
X183730000Y-96000000D03*
X186270000Y-96000000D03*
X186270000Y-80760000D03*
X183730000Y-80760000D03*
X181190000Y-80760000D03*
X178650000Y-80760000D03*
X176110000Y-80760000D03*
X173570000Y-80760000D03*
X171030000Y-80760000D03*
X168490000Y-80760000D03*
X165950000Y-80760000D03*
X163410000Y-80760000D03*
X160870000Y-80760000D03*
X158330000Y-80760000D03*
X155790000Y-80760000D03*
X153250000Y-80760000D03*
%TD*%
D20*
%TO.C,U10*%
X153250000Y-92800000D03*
D21*
X155790000Y-92800000D03*
X158330000Y-92800000D03*
X160870000Y-92800000D03*
X163410000Y-92800000D03*
X165950000Y-92800000D03*
X168490000Y-92800000D03*
X171030000Y-92800000D03*
X173570000Y-92800000D03*
X176110000Y-92800000D03*
X178650000Y-92800000D03*
X181190000Y-92800000D03*
X183730000Y-92800000D03*
X186270000Y-92800000D03*
X186270000Y-77560000D03*
X183730000Y-77560000D03*
X181190000Y-77560000D03*
X178650000Y-77560000D03*
X176110000Y-77560000D03*
X173570000Y-77560000D03*
X171030000Y-77560000D03*
X168490000Y-77560000D03*
X165950000Y-77560000D03*
X163410000Y-77560000D03*
X160870000Y-77560000D03*
X158330000Y-77560000D03*
X155790000Y-77560000D03*
X153250000Y-77560000D03*
%TD*%
D12*
%TO.C,C14*%
X206447500Y-102610000D03*
X205312500Y-102610000D03*
%TD*%
D22*
%TO.C,C1*%
X195292500Y-97420000D03*
X196427500Y-97420000D03*
%TD*%
D10*
%TO.C,U5*%
X182345000Y-115115000D03*
X183615000Y-115115000D03*
X184885000Y-115115000D03*
X186155000Y-115115000D03*
X187425000Y-115115000D03*
X188695000Y-115115000D03*
X189965000Y-115115000D03*
X191235000Y-115115000D03*
X191235000Y-109965000D03*
X189965000Y-109965000D03*
X188695000Y-109965000D03*
X187425000Y-109965000D03*
X186155000Y-109965000D03*
X184885000Y-109965000D03*
X183615000Y-109965000D03*
X182345000Y-109965000D03*
%TD*%
%TO.C,U3*%
X190135000Y-87595000D03*
X191405000Y-87595000D03*
X192675000Y-87595000D03*
X193945000Y-87595000D03*
X195215000Y-87595000D03*
X196485000Y-87595000D03*
X197755000Y-87595000D03*
X199025000Y-87595000D03*
X199025000Y-82445000D03*
X197755000Y-82445000D03*
X196485000Y-82445000D03*
X195215000Y-82445000D03*
X193945000Y-82445000D03*
X192675000Y-82445000D03*
X191405000Y-82445000D03*
X190135000Y-82445000D03*
%TD*%
D22*
%TO.C,C7*%
X162872500Y-75410000D03*
X164007500Y-75410000D03*
%TD*%
D23*
%TO.C,FID1*%
X147225000Y-75500000D03*
%TD*%
D10*
%TO.C,U1*%
X154525000Y-115115000D03*
X155795000Y-115115000D03*
X157065000Y-115115000D03*
X158335000Y-115115000D03*
X159605000Y-115115000D03*
X160875000Y-115115000D03*
X162145000Y-115115000D03*
X163415000Y-115115000D03*
X163415000Y-109965000D03*
X162145000Y-109965000D03*
X160875000Y-109965000D03*
X159605000Y-109965000D03*
X158335000Y-109965000D03*
X157065000Y-109965000D03*
X155795000Y-109965000D03*
X154525000Y-109965000D03*
%TD*%
D24*
%TO.C,U7*%
X209640000Y-82730000D03*
X209640000Y-85030000D03*
D25*
X215940000Y-85030000D03*
D24*
X209640000Y-87330000D03*
%TD*%
D18*
%TO.C,X1*%
X205310000Y-113830000D03*
D26*
X212930000Y-113830000D03*
X212930000Y-106210000D03*
X205310000Y-106210000D03*
%TD*%
D12*
%TO.C,C3*%
X166667500Y-115110000D03*
X165532500Y-115110000D03*
%TD*%
D18*
%TO.C,U4*%
X153250000Y-122250000D03*
D19*
X155790000Y-122250000D03*
X158330000Y-122250000D03*
X160870000Y-122250000D03*
X163410000Y-122250000D03*
X165950000Y-122250000D03*
X168490000Y-122250000D03*
X171030000Y-122250000D03*
X173570000Y-122250000D03*
X176110000Y-122250000D03*
X178650000Y-122250000D03*
X181190000Y-122250000D03*
X183730000Y-122250000D03*
X186270000Y-122250000D03*
X188810000Y-122250000D03*
X191350000Y-122250000D03*
X193890000Y-122250000D03*
X196430000Y-122250000D03*
X198970000Y-122250000D03*
X201510000Y-122250000D03*
X204050000Y-122250000D03*
X206590000Y-122250000D03*
X209130000Y-122250000D03*
X211670000Y-122250000D03*
X211670000Y-99390000D03*
X209130000Y-99390000D03*
X206590000Y-99390000D03*
X204050000Y-99390000D03*
X201510000Y-99390000D03*
X198970000Y-99390000D03*
X196430000Y-99390000D03*
X193890000Y-99390000D03*
X191350000Y-99390000D03*
X188810000Y-99390000D03*
X186270000Y-99390000D03*
X183730000Y-99390000D03*
X181190000Y-99390000D03*
X178650000Y-99390000D03*
X176110000Y-99390000D03*
X173570000Y-99390000D03*
X171030000Y-99390000D03*
X168490000Y-99390000D03*
X165950000Y-99390000D03*
X163410000Y-99390000D03*
X160870000Y-99390000D03*
X158330000Y-99390000D03*
X155790000Y-99390000D03*
X153250000Y-99390000D03*
%TD*%
D27*
%TO.C,RV1*%
X147750000Y-83172500D03*
X150250000Y-85672500D03*
X147750000Y-88172500D03*
%TD*%
D16*
%TO.C,J2*%
X202705000Y-77560000D03*
D17*
X205245000Y-77560000D03*
%TD*%
D12*
%TO.C,C8*%
X246287500Y-91590000D03*
X245152500Y-91590000D03*
%TD*%
D15*
%TO.C,R13*%
X147828000Y-91529500D03*
X147828000Y-90334500D03*
%TD*%
D11*
%TO.C,C5*%
X152630000Y-115112500D03*
X152630000Y-116247500D03*
%TD*%
D12*
%TO.C,C10*%
X205247500Y-80350000D03*
X204112500Y-80350000D03*
%TD*%
D16*
%TO.C,J3*%
X247685000Y-94260000D03*
D17*
X245145000Y-94260000D03*
X242605000Y-94260000D03*
X240065000Y-94260000D03*
X237525000Y-94260000D03*
X234985000Y-94260000D03*
X232445000Y-94260000D03*
%TD*%
D23*
%TO.C,FID2*%
X248660000Y-125220000D03*
%TD*%
M02*
