%TF.GenerationSoftware,KiCad,Pcbnew,8.0.6*%
%TF.CreationDate,2024-12-06T22:05:36+05:00*%
%TF.ProjectId,mt-32DIT-module,6d742d33-3244-4495-942d-6d6f64756c65,rev?*%
%TF.SameCoordinates,Original*%
%TF.FileFunction,Paste,Top*%
%TF.FilePolarity,Positive*%
%FSLAX46Y46*%
G04 Gerber Fmt 4.6, Leading zero omitted, Abs format (unit mm)*
G04 Created by KiCad (PCBNEW 8.0.6) date 2024-12-06 22:05:36*
%MOMM*%
%LPD*%
G01*
G04 APERTURE LIST*
G04 Aperture macros list*
%AMRoundRect*
0 Rectangle with rounded corners*
0 $1 Rounding radius*
0 $2 $3 $4 $5 $6 $7 $8 $9 X,Y pos of 4 corners*
0 Add a 4 corners polygon primitive as box body*
4,1,4,$2,$3,$4,$5,$6,$7,$8,$9,$2,$3,0*
0 Add four circle primitives for the rounded corners*
1,1,$1+$1,$2,$3*
1,1,$1+$1,$4,$5*
1,1,$1+$1,$6,$7*
1,1,$1+$1,$8,$9*
0 Add four rect primitives between the rounded corners*
20,1,$1+$1,$2,$3,$4,$5,0*
20,1,$1+$1,$4,$5,$6,$7,0*
20,1,$1+$1,$6,$7,$8,$9,0*
20,1,$1+$1,$8,$9,$2,$3,0*%
G04 Aperture macros list end*
%ADD10RoundRect,0.150000X0.150000X-0.725000X0.150000X0.725000X-0.150000X0.725000X-0.150000X-0.725000X0*%
%ADD11RoundRect,0.155000X-0.155000X0.212500X-0.155000X-0.212500X0.155000X-0.212500X0.155000X0.212500X0*%
%ADD12RoundRect,0.155000X0.212500X0.155000X-0.212500X0.155000X-0.212500X-0.155000X0.212500X-0.155000X0*%
%ADD13RoundRect,0.250000X1.025000X-0.875000X1.025000X0.875000X-1.025000X0.875000X-1.025000X-0.875000X0*%
%ADD14RoundRect,0.155000X0.155000X-0.212500X0.155000X0.212500X-0.155000X0.212500X-0.155000X-0.212500X0*%
%ADD15RoundRect,0.160000X0.160000X-0.197500X0.160000X0.197500X-0.160000X0.197500X-0.160000X-0.197500X0*%
%ADD16RoundRect,0.155000X-0.212500X-0.155000X0.212500X-0.155000X0.212500X0.155000X-0.212500X0.155000X0*%
%ADD17R,2.000000X1.500000*%
%ADD18R,2.000000X3.800000*%
G04 APERTURE END LIST*
D10*
%TO.C,U2*%
X168735000Y-115115000D03*
X170005000Y-115115000D03*
X171275000Y-115115000D03*
X172545000Y-115115000D03*
X173815000Y-115115000D03*
X175085000Y-115115000D03*
X176355000Y-115115000D03*
X177625000Y-115115000D03*
X177625000Y-109965000D03*
X176355000Y-109965000D03*
X175085000Y-109965000D03*
X173815000Y-109965000D03*
X172545000Y-109965000D03*
X171275000Y-109965000D03*
X170005000Y-109965000D03*
X168735000Y-109965000D03*
%TD*%
D11*
%TO.C,C2*%
X200400000Y-85032500D03*
X200400000Y-86167500D03*
%TD*%
D12*
%TO.C,C4*%
X180627500Y-115110000D03*
X179492500Y-115110000D03*
%TD*%
D13*
%TO.C,C9*%
X203400000Y-89140000D03*
X203400000Y-82740000D03*
%TD*%
D14*
%TO.C,C6*%
X207150000Y-83867500D03*
X207150000Y-82732500D03*
%TD*%
D15*
%TO.C,R16*%
X150250000Y-81372500D03*
X150250000Y-80177500D03*
%TD*%
%TO.C,R17*%
X147740000Y-81369500D03*
X147740000Y-80174500D03*
%TD*%
D12*
%TO.C,C14*%
X206447500Y-102610000D03*
X205312500Y-102610000D03*
%TD*%
D16*
%TO.C,C1*%
X195292500Y-97420000D03*
X196427500Y-97420000D03*
%TD*%
D10*
%TO.C,U5*%
X182345000Y-115115000D03*
X183615000Y-115115000D03*
X184885000Y-115115000D03*
X186155000Y-115115000D03*
X187425000Y-115115000D03*
X188695000Y-115115000D03*
X189965000Y-115115000D03*
X191235000Y-115115000D03*
X191235000Y-109965000D03*
X189965000Y-109965000D03*
X188695000Y-109965000D03*
X187425000Y-109965000D03*
X186155000Y-109965000D03*
X184885000Y-109965000D03*
X183615000Y-109965000D03*
X182345000Y-109965000D03*
%TD*%
%TO.C,U3*%
X190135000Y-87595000D03*
X191405000Y-87595000D03*
X192675000Y-87595000D03*
X193945000Y-87595000D03*
X195215000Y-87595000D03*
X196485000Y-87595000D03*
X197755000Y-87595000D03*
X199025000Y-87595000D03*
X199025000Y-82445000D03*
X197755000Y-82445000D03*
X196485000Y-82445000D03*
X195215000Y-82445000D03*
X193945000Y-82445000D03*
X192675000Y-82445000D03*
X191405000Y-82445000D03*
X190135000Y-82445000D03*
%TD*%
D16*
%TO.C,C7*%
X162872500Y-75410000D03*
X164007500Y-75410000D03*
%TD*%
D10*
%TO.C,U1*%
X154525000Y-115115000D03*
X155795000Y-115115000D03*
X157065000Y-115115000D03*
X158335000Y-115115000D03*
X159605000Y-115115000D03*
X160875000Y-115115000D03*
X162145000Y-115115000D03*
X163415000Y-115115000D03*
X163415000Y-109965000D03*
X162145000Y-109965000D03*
X160875000Y-109965000D03*
X159605000Y-109965000D03*
X158335000Y-109965000D03*
X157065000Y-109965000D03*
X155795000Y-109965000D03*
X154525000Y-109965000D03*
%TD*%
D17*
%TO.C,U7*%
X209640000Y-82730000D03*
X209640000Y-85030000D03*
D18*
X215940000Y-85030000D03*
D17*
X209640000Y-87330000D03*
%TD*%
D12*
%TO.C,C3*%
X166667500Y-115110000D03*
X165532500Y-115110000D03*
%TD*%
%TO.C,C8*%
X246287500Y-91590000D03*
X245152500Y-91590000D03*
%TD*%
D15*
%TO.C,R13*%
X147828000Y-91529500D03*
X147828000Y-90334500D03*
%TD*%
D11*
%TO.C,C5*%
X152630000Y-115112500D03*
X152630000Y-116247500D03*
%TD*%
D12*
%TO.C,C10*%
X205247500Y-80350000D03*
X204112500Y-80350000D03*
%TD*%
M02*
