M48
; DRILL file {KiCad 8.0.6} date 2024-12-06T22:05:39+0500
; FORMAT={-:-/ absolute / metric / decimal}
; #@! TF.CreationDate,2024-12-06T22:05:39+05:00
; #@! TF.GenerationSoftware,Kicad,Pcbnew,8.0.6
; #@! TF.FileFunction,Plated,1,2,PTH
FMAT,2
METRIC
; #@! TA.AperFunction,Plated,PTH,ViaDrill
T1C0.300
; #@! TA.AperFunction,Plated,PTH,ViaDrill
T2C0.400
; #@! TA.AperFunction,Plated,PTH,ComponentDrill
T3C0.800
; #@! TA.AperFunction,Plated,PTH,ComponentDrill
T4C0.900
; #@! TA.AperFunction,Plated,PTH,ComponentDrill
T5C1.000
%
G90
G05
T1
X194.28Y-101.97
X202.92Y-95.6
X205.32Y-101.42
X207.15Y-85.05
X215.37Y-99.375
X231.04Y-98.37
X235.15Y-81.75
X241.53Y-80.21
X243.65Y-91.77
T2
X149.13Y-125.34
X152.3Y-120.0
X152.63Y-114.0
X152.8Y-102.0
X154.55Y-112.0
X154.58Y-120.0
X155.85Y-102.0
X156.8Y-112.0
X157.09Y-120.0
X158.33Y-83.4
X159.4Y-120.0
X159.6Y-102.0
X160.48Y-75.41
X160.6Y-112.0
X162.38Y-120.0
X163.35Y-102.0
X166.0Y-102.0
X166.2Y-120.0
X166.5Y-112.0
X166.67Y-114.0
X168.55Y-102.0
X170.95Y-112.0
X171.05Y-102.0
X171.12Y-120.0
X173.52Y-120.0
X173.55Y-102.0
X175.05Y-112.0
X175.72Y-120.66
X176.15Y-102.0
X177.95Y-120.27
X178.7Y-102.0
X179.1Y-89.77
X179.89Y-90.71
X180.23Y-88.64
X180.4Y-83.98
X180.63Y-114.0
X181.1Y-102.0
X181.34Y-120.0
X181.355Y-89.245
X183.75Y-106.7
X184.83Y-120.0
X184.885Y-112.335
X186.06Y-102.0
X186.46Y-83.98
X186.5Y-86.9
X186.51Y-113.03
X186.55Y-90.84
X186.845Y-89.21
X188.34Y-120.0
X188.69Y-107.63
X190.13Y-85.95
X190.15Y-91.25
X191.39Y-89.74
X191.41Y-83.98
X191.66Y-102.0
X191.66Y-107.69
X191.66Y-112.0
X193.45Y-120.0
X193.95Y-90.15
X195.375Y-112.225
X198.55Y-85.03
X199.17Y-125.17
X199.85Y-97.6
X200.25Y-77.6
X203.4Y-87.28
X205.25Y-81.36
X210.7Y-79.1
X218.85Y-77.4
T3
X153.25Y-77.56
X153.25Y-80.76
X153.25Y-92.8
X153.25Y-96.0
X153.25Y-99.39
X153.25Y-122.25
X155.79Y-77.56
X155.79Y-80.76
X155.79Y-92.8
X155.79Y-96.0
X155.79Y-99.39
X155.79Y-122.25
X158.33Y-77.56
X158.33Y-80.76
X158.33Y-92.8
X158.33Y-96.0
X158.33Y-99.39
X158.33Y-122.25
X160.87Y-77.56
X160.87Y-80.76
X160.87Y-92.8
X160.87Y-96.0
X160.87Y-99.39
X160.87Y-122.25
X163.41Y-77.56
X163.41Y-80.76
X163.41Y-92.8
X163.41Y-96.0
X163.41Y-99.39
X163.41Y-122.25
X165.95Y-77.56
X165.95Y-80.76
X165.95Y-92.8
X165.95Y-96.0
X165.95Y-99.39
X165.95Y-122.25
X168.49Y-77.56
X168.49Y-80.76
X168.49Y-92.8
X168.49Y-96.0
X168.49Y-99.39
X168.49Y-122.25
X171.03Y-77.56
X171.03Y-80.76
X171.03Y-92.8
X171.03Y-96.0
X171.03Y-99.39
X171.03Y-122.25
X173.57Y-77.56
X173.57Y-80.76
X173.57Y-92.8
X173.57Y-96.0
X173.57Y-99.39
X173.57Y-122.25
X176.11Y-77.56
X176.11Y-80.76
X176.11Y-92.8
X176.11Y-96.0
X176.11Y-99.39
X176.11Y-122.25
X178.65Y-77.56
X178.65Y-80.76
X178.65Y-92.8
X178.65Y-96.0
X178.65Y-99.39
X178.65Y-122.25
X181.19Y-77.56
X181.19Y-80.76
X181.19Y-92.8
X181.19Y-96.0
X181.19Y-99.39
X181.19Y-122.25
X183.73Y-77.56
X183.73Y-80.76
X183.73Y-92.8
X183.73Y-96.0
X183.73Y-99.39
X183.73Y-122.25
X186.27Y-77.56
X186.27Y-80.76
X186.27Y-92.8
X186.27Y-96.0
X186.27Y-99.39
X186.27Y-122.25
X188.81Y-99.39
X188.81Y-122.25
X191.35Y-99.39
X191.35Y-122.25
X193.89Y-99.39
X193.89Y-122.25
X196.43Y-99.39
X196.43Y-122.25
X198.97Y-99.39
X198.97Y-122.25
X201.51Y-99.39
X201.51Y-122.25
X204.05Y-99.39
X204.05Y-122.25
X205.31Y-106.21
X205.31Y-113.83
X206.59Y-99.39
X206.59Y-122.25
X208.58Y-77.56
X209.13Y-99.39
X209.13Y-122.25
X211.67Y-99.39
X211.67Y-122.25
X212.93Y-106.21
X212.93Y-113.83
X216.2Y-77.56
T4
X147.75Y-83.172
X147.75Y-88.172
X150.25Y-85.672
T5
X190.17Y-77.56
X192.71Y-77.56
X195.25Y-77.56
X197.79Y-77.56
X202.705Y-77.56
X205.245Y-77.56
X232.445Y-94.26
X234.985Y-94.26
X237.525Y-94.26
X240.065Y-94.26
X242.605Y-94.26
X245.145Y-94.26
X247.685Y-94.26
M30
